<svg xmlns="http://www.w3.org/2000/svg" viewBox="0 0 793.46 793.46">
    <defs>
        <style>.cls-1{fill:#0d47a1;}</style>
    </defs>
    <title>LogoBlue</title>
    <g id="Ebene_2" data-name="Ebene 2">
        <g id="Ebene_6" data-name="Ebene 6">
            <circle class="cls-1" cx="396.73" cy="396.73" r="99.31"/>
            <path class="cls-1"
                  d="M396.73,0C177.62,0,0,177.62,0,396.73A395.69,395.69,0,0,0,128.73,689.25V394.68h0c1.1-147.07,120.64-266,268-266,148,0,268,120,268,268a267.26,267.26,0,0,1-19,99.31H780.93a397.49,397.49,0,0,0,12.53-99.31C793.46,177.62,615.84,0,396.73,0Zm0,664.73A266.71,266.71,0,0,1,257.3,625.64V768.26a397.26,397.26,0,0,0,402.81-74.83L553.88,613.82A266.74,266.74,0,0,1,396.73,664.73Z"/>
            <polyline class="cls-1" points="396.73 496.04 645.86 495.97 461.86 321.72"/>
        </g>
    </g>
</svg>